<svg width="182" height="25" viewBox="0 0 182 25" fill="none" xmlns="http://www.w3.org/2000/svg">
<path d="M38.9046 20.4478L41.2177 12.851L42.2835 8.47431H42.5329L43.5988 12.851L45.8665 20.4478H50.9235L54.5291 5.25417H50.8101L48.9732 13.8715L48.4517 17.205H48.2022L47.4992 13.8715L44.9821 5.25417H39.9251L37.3853 13.8715L36.6823 17.205H36.4328L35.9112 13.8715L34.0744 5.25417H30.2646L33.8476 20.4478H38.9046Z" fill="black"/>
<path d="M58.2506 20.6746C60.7677 20.6746 62.3551 19.6088 62.8767 17.8399H63.0581V20.4478H66.2329V13.7807C66.2329 10.81 64.4414 8.85982 60.6544 8.85982C56.9126 8.85982 54.5542 10.81 54.5542 13.622V13.69H57.9785V13.5993C57.9785 12.3067 58.6814 11.8532 60.4049 11.8532C62.2191 11.8532 62.8767 12.2614 62.8767 13.7354V14.1663L58.0011 14.6651C55.5747 14.9146 54.3274 15.9577 54.3274 17.6358C54.3274 19.5407 55.8015 20.6746 58.2506 20.6746ZM57.7517 17.4091C57.7517 16.8648 58.1145 16.6381 58.9309 16.57L62.8767 16.1165C62.786 17.7266 61.5388 18.2708 59.2257 18.2708C58.2279 18.2708 57.7517 18.0214 57.7517 17.4091Z" fill="black"/>
<path d="M75.4707 20.4478L80.6638 9.08659H76.9448L73.5205 17.137H73.2938L69.8922 9.08659H66.1051L71.2755 20.4478H75.4707Z" fill="black"/>
<path d="M86.6491 20.6746C90.2547 20.6746 92.6585 18.9511 92.6585 16.4793V16.2299H89.2569V16.4566C89.2569 17.4318 88.5539 17.9533 86.5357 17.9533C84.336 17.9533 83.5196 17.205 83.4289 15.4588H92.6812C92.7265 15.0733 92.7719 14.7785 92.7719 14.3703C92.7719 10.81 90.3001 8.85982 86.581 8.85982C82.8393 8.85982 80.2768 11.1502 80.2768 14.7785C80.2768 18.8151 82.862 20.6746 86.6491 20.6746ZM86.513 11.513C88.5086 11.513 89.4157 12.1707 89.5064 13.6674H83.4743C83.633 12.1933 84.4947 11.513 86.513 11.513Z" fill="black"/>
<path d="M99.9517 20.6746C103.467 20.6746 105.576 19.2686 105.576 17.137C105.576 15.2548 104.442 14.2343 101.403 13.8941L98.9765 13.5993C97.4799 13.4179 97.1624 13.1685 97.1624 12.5789C97.1624 11.8532 97.5932 11.5584 99.294 11.5584C101.38 11.5584 101.834 12.0346 101.834 12.9644V13.1004H105.235V13.0324C105.235 10.2658 103.126 8.85982 99.4074 8.85982C95.507 8.85982 93.8062 10.4472 93.8062 12.4428C93.8062 14.3477 95.0761 15.3681 97.3438 15.6176L100.541 16.0031C101.879 16.1845 102.219 16.3659 102.219 17.0009C102.219 17.6812 101.788 17.976 99.9743 17.976C98.0468 17.976 97.4118 17.7039 97.4118 16.6834V16.4793H94.0103V16.5473C94.0103 19.1779 96.1192 20.6746 99.9517 20.6746Z" fill="black"/>
<path d="M112.028 20.6746C114.636 20.6746 116.132 19.5407 116.563 17.2957H116.745V20.4478H119.919V5.25417H117.463L116.518 12.1026H116.314C115.928 10.1978 114.545 8.85982 111.846 8.85982C108.467 8.85982 106.54 11.1502 106.54 14.7785C106.54 18.3615 108.49 20.6746 112.028 20.6746ZM109.987 14.7785C109.987 12.6922 111.007 11.9666 113.184 11.9666C115.361 11.9666 116.518 12.6922 116.518 14.6651V14.8466C116.518 16.8195 115.339 17.5678 113.184 17.5678C111.007 17.5678 109.987 16.8421 109.987 14.7785Z" fill="black"/>
<path d="M128.035 20.6746C131.641 20.6746 134.045 18.9511 134.045 16.4793V16.2299H130.643V16.4566C130.643 17.4318 129.94 17.9533 127.922 17.9533C125.722 17.9533 124.906 17.205 124.815 15.4588H134.068C134.113 15.0733 134.158 14.7785 134.158 14.3703C134.158 10.81 131.686 8.85982 127.967 8.85982C124.226 8.85982 121.663 11.1502 121.663 14.7785C121.663 18.8151 124.248 20.6746 128.035 20.6746ZM127.899 11.513C129.895 11.513 130.802 12.1707 130.893 13.6674H124.861C125.019 12.1933 125.881 11.513 127.899 11.513Z" fill="black"/>
<path d="M141.668 20.6746C145.183 20.6746 147.292 19.2686 147.292 17.137C147.292 15.2548 146.158 14.2343 143.12 13.8941L140.693 13.5993C139.197 13.4179 138.879 13.1685 138.879 12.5789C138.879 11.8532 139.31 11.5584 141.011 11.5584C143.097 11.5584 143.551 12.0346 143.551 12.9644V13.1004H146.952V13.0324C146.952 10.2658 144.843 8.85982 141.124 8.85982C137.224 8.85982 135.523 10.4472 135.523 12.4428C135.523 14.3477 136.793 15.3681 139.061 15.6176L142.258 16.0031C143.596 16.1845 143.936 16.3659 143.936 17.0009C143.936 17.6812 143.505 17.976 141.691 17.976C139.763 17.976 139.129 17.7039 139.129 16.6834V16.4793H135.727V16.5473C135.727 19.1779 137.836 20.6746 141.668 20.6746Z" fill="black"/>
<path d="M152.066 7.93006L153.011 5.25417H149.61L148.665 7.93006H152.066ZM152.066 20.4478V9.08659H148.665V20.4478H152.066Z" fill="black"/>
<path d="M158.836 19.2913C161.376 19.2913 162.714 18.1347 163.076 16.4566H163.258V19.0191C163.258 21.2415 162.6 21.695 160.423 21.695C158.11 21.695 157.611 21.3095 157.611 20.0396H154.21C154.21 22.8969 156.523 24.5297 160.196 24.5297C164.256 24.5297 166.659 22.7609 166.659 18.7924V8.14171L163.485 9.08659V11.8305H163.303C162.94 9.85761 161.285 8.85982 158.972 8.85982C155.57 8.85982 153.507 10.9008 153.507 14.0755C153.507 17.273 155.457 19.2913 158.836 19.2913ZM156.931 14.0755C156.931 12.3974 157.883 11.8078 160.06 11.8078C162.169 11.8078 163.258 12.3974 163.258 13.9395V14.1889C163.258 15.7536 162.192 16.3659 160.015 16.3659C157.883 16.3659 156.931 15.7536 156.931 14.0755Z" fill="black"/>
<path d="M171.864 20.4478V14.7105C171.864 12.783 172.636 11.9212 174.79 11.9212C176.876 11.9212 177.624 12.6922 177.624 14.5064V20.4478H181.026V13.3726C181.026 10.8554 179.552 8.85982 176.445 8.85982C173.475 8.85982 172.114 10.674 171.819 12.5789H171.615V9.08659H168.463V20.4478H171.864Z" fill="black"/>
<path d="M24.0964 15.7582C22.633 20.6236 18.1187 24.1679 12.7765 24.1679C6.45871 24.1679 1.29877 19.211 0.973633 12.9742C3.47626 13.2537 5.57394 14.1516 7.77281 15.0928L7.77513 15.0938C10.4391 16.2346 13.1943 17.4141 16.7248 17.4141C19.5651 17.4141 21.9034 16.6507 24.0964 15.7582Z" fill="black"/>
<path d="M24.4654 14.1091C22.0518 15.1334 19.6994 16.0335 16.7248 16.0335C13.4773 16.0335 10.9715 14.9608 8.31853 13.8249C6.07375 12.8637 3.76456 11.875 0.981465 11.5875C1.07999 10.0376 1.47726 8.56887 2.1163 7.23825C4.13261 7.62515 5.91669 8.38878 7.77281 9.18325L7.77513 9.18426C10.4391 10.325 13.1943 11.5046 16.7248 11.5046C19.6581 11.5046 22.056 10.6903 24.3113 9.76059C24.4974 10.5936 24.5956 11.4597 24.5956 12.3488C24.5956 12.947 24.5511 13.5348 24.4654 14.1091Z" fill="black"/>
<path d="M12.7765 0.529663C8.59565 0.529663 4.92186 2.70043 2.82068 5.97635C4.81695 6.41606 6.58691 7.17387 8.31853 7.9153C10.9715 9.05127 13.4773 10.124 16.7248 10.124C19.4786 10.124 21.6992 9.35247 23.9287 8.42518C22.3108 3.82625 17.9286 0.529663 12.7765 0.529663Z" fill="black"/>
</svg>
